HIERARCHY
ROOT Hips
{
	OFFSET -3.958830 18.904000 13.208200
	CHANNELS 6 Xposition Yposition Zposition Zrotation Yrotation Xrotation 
	JOINT LHipJoint
	{
		OFFSET 0.000000 0.000000 0.000000
		CHANNELS 3 Zrotation Yrotation Xrotation
		JOINT LeftUpLeg
		{
			OFFSET 1.800000 -1.400000 0.085000
			CHANNELS 3 Zrotation Yrotation Xrotation
			JOINT LeftLeg
			{
				OFFSET 2.215000 -6.000000 0.000000
				CHANNELS 3 Zrotation Yrotation Xrotation
				JOINT LeftFoot
				{
					OFFSET 2.500000 -6.900000 0.000000
					CHANNELS 3 Zrotation Yrotation Xrotation
					JOINT LeftToeBase
					{
						OFFSET 0.200000 -0.500000 1.950000
						CHANNELS 3 Zrotation Yrotation Xrotation
						End Site
						{
							OFFSET 0.000000 0.000000 0.000000
						}
					}
				}
			}
		}
	}
	JOINT RHipJoint
	{
		OFFSET 0.000000 0.000000 0.000000
		CHANNELS 3 Zrotation Yrotation Xrotation
		JOINT RightUpLeg
		{
			OFFSET -1.800000 -1.400000 0.085000
			CHANNELS 3 Zrotation Yrotation Xrotation
			JOINT RightLeg
			{
				OFFSET -2.215000 -6.000000 0.000000
				CHANNELS 3 Zrotation Yrotation Xrotation
				JOINT RightFoot
				{
					OFFSET -2.500000 -6.900000 0.000000
					CHANNELS 3 Zrotation Yrotation Xrotation
					JOINT RightToeBase
					{
						OFFSET -0.200000 -0.500000 1.950000
						CHANNELS 3 Zrotation Yrotation Xrotation
						End Site
						{
							OFFSET 0.000000 0.000000 0.000000
						}
					}
				}
			}
		}
	}
	JOINT LowerBack
	{
		OFFSET 0.000000 0.000000 0.000000
		CHANNELS 3 Zrotation Yrotation Xrotation
		JOINT Spine
		{
			OFFSET -0.087000 1.940000 -0.288900
			CHANNELS 3 Zrotation Yrotation Xrotation
			JOINT Spine1
			{
				OFFSET 0.000000 1.950000 0.060000
				CHANNELS 3 Zrotation Yrotation Xrotation
				JOINT Neck
				{
					OFFSET 0.000000 0.000000 0.000000
					CHANNELS 3 Zrotation Yrotation Xrotation
					JOINT Neck1
					{
						OFFSET 0.000000 1.600000 0.340000
						CHANNELS 3 Zrotation Yrotation Xrotation
						JOINT Head
						{
							OFFSET 0.000000 1.667000 -0.240000
							CHANNELS 3 Zrotation Yrotation Xrotation
							End Site
							{
								OFFSET 0.000000 0.000000 0.000000
							}
						}
					}
				}
				JOINT LeftShoulder
				{
					OFFSET 0.000000 0.000000 0.000000
					CHANNELS 3 Zrotation Yrotation Xrotation
					JOINT LeftArm
					{
						OFFSET 2.700000 1.550000 -0.730000
						CHANNELS 3 Zrotation Yrotation Xrotation
						JOINT LeftForeArm
						{
							OFFSET 5.450000 0.000000 0.000000
							CHANNELS 3 Zrotation Yrotation Xrotation
							JOINT LeftHand
							{
								OFFSET 3.450000 0.000000 0.000000
								CHANNELS 3 Zrotation Yrotation Xrotation
								JOINT LeftHandIndex1
								{
									OFFSET 0.750000 0.000000 0.000000
									CHANNELS 3 Zrotation Yrotation Xrotation
									End Site
									{
										OFFSET 0.000000 0.000000 0.000000
									}
								}
							}
						}
					}
				}
				JOINT RightShoulder
				{
					OFFSET 0.000000 0.000000 0.000000
					CHANNELS 3 Zrotation Yrotation Xrotation
					JOINT RightArm
					{
						OFFSET -2.700000 1.550000 -0.730000
						CHANNELS 3 Zrotation Yrotation Xrotation
						JOINT RightForeArm
						{
							OFFSET -5.450000 0.000000 0.000000
							CHANNELS 3 Zrotation Yrotation Xrotation
							JOINT RightHand
							{
								OFFSET -3.450000 0.000000 0.000000
								CHANNELS 3 Zrotation Yrotation Xrotation
								JOINT RightHandIndex1
								{
									OFFSET -0.750000 0.000000 0.000000
									CHANNELS 3 Zrotation Yrotation Xrotation
									End Site
									{
										OFFSET 0.000000 0.000000 0.000000
									}
								}
							}
						}
					}
				}
			}
		}
	}
}
MOTION
Frames: 4
Frame Time: 0.016667
1.047340 17.309270 -1.310140 7.773027 -32.636465 -0.593000 -15.062743 11.352561 5.476855 -16.798306 -10.259610 -40.829237 -5.092626 2.926577 8.771823 -0.940251 1.826956 3.982345 0.364930 0.000730 0.489730 18.482605 -10.872646 2.497648 -3.231286 0.455774 -8.078317 6.927759 -5.544220 14.531415 -0.310490 -3.787451 2.957628 0.077880 0.179900 0.333960 -4.132779 -0.057346 -8.328816 16.955311 6.807346 29.234099 -0.002100 11.094061 9.225802 0.588773 -5.196279 -6.556874 -12.127726 1.567395 38.940751 -10.049180 1.513590 -10.648920 -14.368589 0.117038 0.331071 -12.491000 0.668355 -2.373859 -24.118178 -62.438593 12.412003 -3.676879 3.562099 0.524360 0.110380 0.062920 0.066050 11.059924 8.262659 3.303782 22.975819 2.686505 -15.992780 -59.441241 74.276734 -39.822873 1.300182 -0.110522 -0.207320 0.142200 -0.006930 -0.207540 
1.120140 17.228290 -1.265710 6.570871 -30.774048 0.550096 -14.923279 11.267070 5.282151 -15.579630 -9.303646 -39.329940 -9.368739 2.617638 1.437039 -0.928357 1.910998 3.990199 0.341870 -0.044770 0.457720 18.612057 -10.977034 2.600330 -2.470992 0.430272 -7.861168 7.193231 -5.467047 13.428658 -0.304861 -3.808849 2.962385 0.066940 0.227690 0.336720 -4.553856 0.376182 -8.295620 20.724283 5.476843 28.179438 -1.602050 10.375371 8.629879 0.486770 -5.938570 -6.482298 -13.514582 1.562551 39.308346 -9.527680 0.702420 -8.708240 -15.101880 0.412306 0.229702 -11.779082 0.682638 -1.696709 -21.062643 -67.821590 11.916567 -3.727303 3.578892 0.503090 0.137390 0.017580 0.071410 11.831792 7.837308 3.327122 20.496604 3.358286 -13.458234 -31.842449 68.808072 -19.292356 1.704969 -1.231921 -0.222840 0.146580 0.017980 -0.199660 
1.193330 17.166490 -1.226680 5.696026 -29.992295 1.594096 -14.834957 11.181989 5.264136 -15.210598 -9.158672 -39.962339 -8.720002 2.517575 0.908765 -0.922800 1.867326 4.045251 0.290810 -0.087370 0.404860 18.699948 -11.060981 2.632154 -1.918242 0.577735 -8.553537 6.870902 -5.368676 13.550540 -0.252979 -3.767709 3.017523 0.054270 0.300490 0.307710 -4.828091 0.705204 -8.241887 23.176157 4.401148 27.598228 -3.049469 9.801809 7.380739 0.350318 -6.822094 -6.294864 -14.864436 2.255163 38.977101 -9.543890 1.008140 -6.645000 -15.049697 2.116689 0.164433 -14.538011 0.628153 -1.514503 -12.079256 -74.885394 6.966548 -3.776444 3.537421 0.455800 0.185450 -0.036330 0.087950 11.912508 6.511242 2.892546 20.509415 6.125212 -10.598777 -16.911697 60.592902 -8.170194 1.863758 -1.467193 -0.253500 0.184630 0.031800 -0.178630 
1.236900 17.132040 -1.177720 4.522451 -30.377490 2.771682 -14.733713 11.180403 5.234859 -14.005998 -8.878771 -41.238574 -6.181203 2.611774 4.256927 -0.877924 1.763790 4.082589 0.255900 -0.109980 0.330940 18.776431 -11.239220 2.660620 -0.805786 1.019710 -10.354229 5.491185 -5.270457 15.997810 -0.201470 -3.722847 3.051092 0.020740 0.344090 0.322700 -5.083336 1.107008 -8.131681 25.651446 3.693641 27.142475 -4.764528 9.684283 5.760373 0.098789 -7.629840 -6.312557 -16.160048 2.787472 39.020554 -9.187990 0.992150 -4.341440 -14.144212 4.241170 0.312569 -18.969825 0.586334 -1.583515 3.507255 -82.062434 -4.890573 -3.766120 3.538393 0.395570 0.218100 -0.066920 0.113920 11.368468 5.052131 2.582557 23.802963 9.036131 -8.354263 -10.413967 52.288177 -3.688564 1.964042 -1.509102 -0.222000 0.155420 0.038990 -0.135820 
